<svg width="16" height="16" viewBox="0 0 16 16" fill="none" xmlns="http://www.w3.org/2000/svg">
<g clip-path="url(#clip0_128_7)">
<path d="M11.9403 6.00584V5.11444C11.9403 3.95229 11.4786 2.83774 10.6568 2.01597C9.83506 1.19421 8.72051 0.732544 7.55836 0.732544C6.39621 0.732544 5.28166 1.19421 4.45989 2.01597C3.63813 2.83774 3.17646 3.95229 3.17646 5.11444V6.00584C2.61894 6.24917 2.1444 6.64968 1.81088 7.15841C1.47736 7.66714 1.29931 8.26204 1.29851 8.87035V12.6263C1.2995 13.4561 1.62958 14.2516 2.21634 14.8384C2.8031 15.4251 3.59863 15.7552 4.42843 15.7562H10.6883C11.5181 15.7552 12.3136 15.4251 12.9004 14.8384C13.4871 14.2516 13.8172 13.4561 13.8182 12.6263V8.87035C13.8174 8.26204 13.6394 7.66714 13.3058 7.15841C12.9723 6.64968 12.4978 6.24917 11.9403 6.00584ZM4.42843 5.11444C4.42843 4.28433 4.75819 3.48822 5.34517 2.90125C5.93214 2.31427 6.72825 1.98451 7.55836 1.98451C8.38847 1.98451 9.18458 2.31427 9.77155 2.90125C10.3585 3.48822 10.6883 4.28433 10.6883 5.11444V5.74042H4.42843V5.11444ZM12.5662 12.6263C12.5662 13.1243 12.3684 13.602 12.0162 13.9542C11.664 14.3064 11.1863 14.5042 10.6883 14.5042H4.42843C3.93037 14.5042 3.4527 14.3064 3.10052 13.9542C2.74833 13.602 2.55048 13.1243 2.55048 12.6263V8.87035C2.55048 8.37228 2.74833 7.89462 3.10052 7.54243C3.4527 7.19025 3.93037 6.99239 4.42843 6.99239H10.6883C11.1863 6.99239 11.664 7.19025 12.0162 7.54243C12.3684 7.89462 12.5662 8.37228 12.5662 8.87035V12.6263Z" fill="#737373"/>
<path d="M7.55836 9.49634C7.39234 9.49634 7.23311 9.56229 7.11572 9.67968C6.99832 9.79708 6.93237 9.9563 6.93237 10.1223V11.3743C6.93237 11.5403 6.99832 11.6995 7.11572 11.8169C7.23311 11.9343 7.39234 12.0003 7.55836 12.0003C7.72438 12.0003 7.8836 11.9343 8.001 11.8169C8.11839 11.6995 8.18434 11.5403 8.18434 11.3743V10.1223C8.18434 9.9563 8.11839 9.79708 8.001 9.67968C7.8836 9.56229 7.72438 9.49634 7.55836 9.49634Z" fill="#737373"/>
</g>
<defs>
<clipPath id="clip0_128_7">
<rect width="15.0236" height="15.0236" fill="white" transform="translate(0.0465393 0.732544)"/>
</clipPath>
</defs>
</svg>
